<?xml version="1.0" encoding="UTF-8"?>
<svg version="1.1" xmlns="http://www.w3.org/2000/svg" width="1024" height="1024">
<path d="M0 0 C-1.35085824 8.20328814 -3.23615402 16.18979268 -5.3515625 24.2265625 C-5.86012685 26.18190328 -6.36868232 28.13724638 -6.87690067 30.09267712 C-7.41782507 32.17169408 -7.96048543 34.25025133 -8.50357056 36.32870483 C-10.42724125 43.69386442 -12.33488415 51.06317186 -14.23828125 58.43359375 C-14.43425337 59.19225298 -14.63022549 59.95091221 -14.83213615 60.73256111 C-19.99836332 80.75121425 -24.91941583 100.82971813 -29.82080078 120.91455078 C-35.36330423 143.61872315 -35.36330423 143.61872315 -38.03198242 153.43725586 C-39.23845414 157.87761947 -40.40883939 162.32706817 -41.578125 166.77734375 C-41.90667732 168.02631691 -41.90667732 168.02631691 -42.24186707 169.30052185 C-42.91149617 171.84611518 -43.58075488 174.3918057 -44.25 176.9375 C-44.71351834 178.69987593 -45.17705987 180.46224575 -45.640625 182.22460938 C-46.76068313 186.48300289 -47.88043062 190.74147797 -49 195 C-53.84881193 194.24218444 -55.50886159 192.86396032 -58.75 189.125 C-59.17974121 188.63539795 -59.60948242 188.1457959 -60.05224609 187.64135742 C-63.76509444 183.3773725 -67.29399719 178.96219362 -70.84375 174.5625 C-73.42481601 171.49514619 -76.20375374 168.71154755 -79.0703125 165.9140625 C-81.11066561 163.89023047 -83.07110051 161.81781068 -85 159.6875 C-85.5775 159.05199219 -86.155 158.41648437 -86.75 157.76171875 C-88 156 -88 156 -88 153 C-89.14926266 153.95421808 -90.29430541 154.91352045 -91.4375 155.875 C-92.39462891 156.67550781 -92.39462891 156.67550781 -93.37109375 157.4921875 C-95.10805004 158.9222757 -95.10805004 158.9222757 -96 161 C-96.66 161 -97.32 161 -98 161 C-98.268125 161.639375 -98.53625 162.27875 -98.8125 162.9375 C-100 165 -100 165 -103 166 C-103.33 166.99 -103.66 167.98 -104 169 C-104.66 169 -105.32 169 -106 169 C-106.34877197 169.83664185 -106.34877197 169.83664185 -106.70458984 170.69018555 C-108.33623639 173.59953496 -110.36172126 175.60348491 -112.7265625 177.95703125 C-113.1930722 178.42308273 -113.65958191 178.88913422 -114.14022827 179.36930847 C-115.1280674 180.35413345 -116.11832895 181.33653381 -117.11083984 182.31665039 C-118.60433047 183.79208043 -120.0898575 185.2751574 -121.57421875 186.75976562 C-126.3223501 191.48974606 -131.14034227 196.08637897 -136.23046875 200.45092773 C-139.00978474 202.8839796 -141.59925409 205.49183126 -144.1875 208.125 C-144.68185547 208.62386719 -145.17621094 209.12273437 -145.68554688 209.63671875 C-146.66787856 210.62811014 -147.64933547 211.62036914 -148.62988281 212.61352539 C-152.26750653 216.29457762 -155.94384827 219.936705 -159.6171875 223.58203125 C-161.3698604 225.32545173 -163.12246256 227.06894335 -164.875 228.8125 C-166.18404297 230.10897461 -166.18404297 230.10897461 -167.51953125 231.43164062 C-168.37675781 232.28564453 -169.23398437 233.13964844 -170.1171875 234.01953125 C-170.88659668 234.78370361 -171.65600586 235.54787598 -172.44873047 236.33520508 C-174.45831984 238.43421637 -176.36509871 240.55794525 -178.26098633 242.7565918 C-182.22410879 247.31875136 -186.43828055 251.60005527 -190.70703125 255.875 C-191.91693977 257.08990112 -191.91693977 257.08990112 -193.15129089 258.3293457 C-194.84165913 260.02474221 -196.53335328 261.7188177 -198.22631836 263.41162109 C-200.82758911 266.01510193 -203.42073132 268.62650696 -206.01367188 271.23828125 C-207.66096955 272.8885089 -209.30873899 274.53826578 -210.95703125 276.1875 C-211.73407913 276.9717334 -212.51112701 277.7559668 -213.3117218 278.56396484 C-214.02974472 279.27891113 -214.74776764 279.99385742 -215.48754883 280.73046875 C-216.1192952 281.36364014 -216.75104156 281.99681152 -217.40193176 282.64916992 C-219 284 -219 284 -221 284 C-221 284.66 -221 285.32 -221 286 C-222.32112122 287.30111694 -222.32112122 287.30111694 -224.23754883 288.86865234 C-230.21146233 293.95356189 -235.66982119 299.54576162 -241.19921875 305.1015625 C-242.36385925 306.26807302 -243.52872439 307.43435929 -244.69380188 308.60043335 C-247.74031572 311.65073767 -250.78381616 314.70403099 -253.82666016 317.75799561 C-256.91973056 320.86131267 -260.01564363 323.96179097 -263.11132812 327.0625 C-268.55663311 332.51733535 -273.99946468 337.97462778 -279.44047546 343.43374634 C-281.18444071 345.18229656 -282.93626338 346.92303685 -284.69490051 348.65682983 C-287.08012581 350.99090957 -287.08012581 350.99090957 -289.1875 353.8125 C-289.785625 354.534375 -290.38375 355.25625 -291 356 C-291.66 356 -292.32 356 -293 356 C-293 356.66 -293 357.32 -293 358 C-293.66 358 -294.32 358 -295 358 C-295.37125 358.86625 -295.37125 358.86625 -295.75 359.75 C-297.18299988 362.32939979 -298.78424676 364.06121592 -301 366 C-301.66 366 -302.32 366 -303 366 C-303.2475 366.61875 -303.495 367.2375 -303.75 367.875 C-305.23740369 370.40358627 -306.43678009 370.71839004 -309 372 C-309.4640625 372.928125 -309.4640625 372.928125 -309.9375 373.875 C-311.37148535 376.7429707 -313.49231739 378.02967795 -316 380 C-317.35827971 381.64639965 -318.69254251 383.31295807 -320 385 C-322.125 387.3125 -322.125 387.3125 -324 389 C-324.66 389 -325.32 389 -326 389 C-326 389.66 -326 390.32 -326 391 C-326.66 391 -327.32 391 -328 391 C-328.39396973 391.8818396 -328.39396973 391.8818396 -328.79589844 392.78149414 C-330.05855616 395.10788724 -331.39219361 396.63593987 -333.265625 398.49609375 C-333.90886719 399.13740234 -334.55210937 399.77871094 -335.21484375 400.43945312 C-335.88644531 401.09880859 -336.55804687 401.75816406 -337.25 402.4375 C-337.90613281 403.09298828 -338.56226563 403.74847656 -339.23828125 404.42382812 C-342.16494075 407.32430479 -345.10022867 410.14296599 -348.29296875 412.75 C-350.52615377 414.60615378 -352.25880098 416.31666862 -354.0625 418.5625 C-357.13507266 422.18468865 -360.51104127 425.38087985 -364.02645874 428.56270123 C-370.36025851 434.35545192 -376.46725349 440.34374391 -382.51416016 446.4342804 C-383.60640815 447.53040224 -384.69889523 448.62628588 -385.79159641 449.72195596 C-388.13995572 452.07768132 -390.48668627 454.43501246 -392.83211327 456.7936573 C-396.65007301 460.63310234 -400.47170618 464.46887821 -404.29377747 468.30422974 C-409.12418544 473.1519229 -413.95366576 478.00053699 -418.78204566 482.85025015 C-428.25686436 492.36681979 -437.7386148 501.87645666 -447.22290039 511.3835907 C-448.71919787 512.8835573 -450.21549284 514.38352642 -451.71178532 515.88349801 C-453.97829069 518.15555561 -456.24480489 520.42760441 -458.51133901 522.69963333 C-467.03212965 531.2410887 -475.55239895 539.78306376 -484.07177734 548.32592773 C-484.84964596 549.10593571 -485.62751457 549.88594369 -486.42895496 550.68958827 C-499.07061442 563.36659206 -511.70312839 576.05267559 -524.33281994 588.74160121 C-537.31174531 601.78088228 -550.30203504 614.80876395 -563.30260468 627.82646531 C-571.31720062 635.85241347 -579.32247448 643.88743794 -587.31611401 651.93425932 C-592.78354444 657.43643552 -598.26178971 662.92768457 -603.74881977 668.41031484 C-606.91667309 671.57630266 -610.07934288 674.74706631 -613.22919655 677.93097115 C-616.10904437 680.84174925 -619.00222285 683.73852836 -621.90690875 686.62451484 C-622.95830548 687.67406028 -624.004579 688.72876676 -625.04528928 689.78890959 C-626.45426623 691.2227273 -627.88345615 692.63660001 -629.31370544 694.0491991 C-630.10369147 694.84200553 -630.8936775 695.63481195 -631.7076025 696.45164281 C-634 698 -634 698 -636.68986893 697.82030648 C-639.12188894 696.95671835 -640.31467694 696.16788528 -642.1027832 694.33544922 C-642.65718582 693.77751678 -643.21158844 693.21958435 -643.78279114 692.64474487 C-644.36622787 692.03752594 -644.94966461 691.43030701 -645.55078125 690.8046875 C-646.47723701 689.86618454 -646.47723701 689.86618454 -647.42240906 688.90872192 C-649.39545199 686.90672429 -651.35441381 684.89161921 -653.3125 682.875 C-655.88771936 680.2432491 -658.46831003 677.61682109 -661.05078125 674.9921875 C-661.97977486 674.04601059 -661.97977486 674.04601059 -662.92753601 673.08071899 C-666.55546157 669.40339453 -670.24981446 665.88277061 -674.19555664 662.54443359 C-677.78983836 659.46806691 -681.17342605 656.17365707 -684.5625 652.875 C-685.29791016 652.18535156 -686.03332031 651.49570312 -686.79101562 650.78515625 C-687.48001953 650.11097656 -688.16902344 649.43679688 -688.87890625 648.7421875 C-689.5035376 648.1426123 -690.12816895 647.54303711 -690.77172852 646.92529297 C-692 645 -692 645 -691.85751545 642.69100505 C-690.75038503 639.21667285 -689.08795485 637.59229727 -686.50802422 635.01862621 C-686.03453454 634.54082076 -685.56104487 634.0630153 -685.07320702 633.57073089 C-683.47783486 631.96574336 -681.86854913 630.37547721 -680.25900269 628.78471375 C-679.10320306 627.62788623 -677.94828394 626.47017843 -676.79417336 625.31166583 C-673.61504504 622.12551889 -670.42355592 618.95200817 -667.22996759 615.78036416 C-663.78972866 612.35942105 -660.36103248 608.92694424 -656.93095398 605.49581909 C-650.98314629 599.54932607 -645.02810294 593.61015926 -639.06817245 587.67581749 C-630.44294786 579.08751428 -621.82925385 570.48772184 -613.2184353 561.88497768 C-599.23753823 547.91772273 -585.24809667 533.95905905 -571.25292969 520.00610352 C-557.67502614 506.46910274 -544.0998619 492.92936754 -530.52929688 479.38500977 C-529.69417166 478.55150085 -528.85904645 477.71799194 -527.99861442 476.85922518 C-518.87861015 467.75670697 -509.75942075 458.65337279 -500.64087105 449.54939747 C-499.83900623 448.74882048 -499.03714141 447.94824349 -498.21097765 447.12340659 C-493.40198675 442.3221361 -493.40198675 442.3221361 -488.59308089 437.52078042 C-479.21061167 428.15294669 -469.8256602 418.78761528 -460.43624289 409.42674539 C-454.54314745 403.55152034 -448.65161134 397.67473508 -442.76128511 391.7967337 C-438.71224078 387.75638353 -434.66112554 383.71812614 -430.60834669 379.68152217 C-428.14446674 377.22640145 -425.68270726 374.76916321 -423.2215568 372.31130657 C-422.09786969 371.18996552 -420.97332233 370.06948568 -419.8478093 368.94997736 C-414.55317673 363.68279294 -409.34713753 358.39181815 -404.48782384 352.71521062 C-402.29952038 350.19246483 -399.96027671 347.83754614 -397.59823608 345.47798157 C-396.85339161 344.73185546 -396.85339161 344.73185546 -396.09349978 343.9706561 C-394.45710433 342.33263583 -392.81720229 340.69817537 -391.17724609 339.0637207 C-389.99200808 337.87876525 -388.80699119 336.69358858 -387.62217712 335.50820923 C-384.42417926 332.30992593 -381.22311973 329.11472328 -378.02148008 325.92008615 C-374.66279535 322.56768442 -371.30697262 319.21242016 -367.95083618 315.85746765 C-361.59832358 309.50805648 -355.24326856 303.1611964 -348.88728201 296.81526297 C-341.66828281 289.60743614 -334.45211644 282.39677608 -327.23619342 275.18586981 C-314.90071288 262.85906301 -302.5631358 250.53435791 -290.22315979 238.21205139 C-289.70173295 237.69136414 -289.1803061 237.17067689 -288.64307845 236.63421124 C-287.25720304 235.25031748 -285.87129675 233.86645466 -284.4853878 232.48259449 C-281.19395035 229.19485627 -277.90408063 225.90556273 -274.6171875 222.61328125 C-272.64813551 220.64716814 -270.67384705 218.6869945 -268.6953125 216.73046875 C-263.14997826 211.23444007 -257.65197089 205.77121006 -252.58984375 199.8203125 C-249.58715922 196.38234938 -246.45537757 192.98671716 -243 190 C-242.34 190 -241.68 190 -241 190 C-240.6142065 189.12706362 -240.6142065 189.12706362 -240.2206192 188.23649216 C-238.88975779 185.79800756 -237.43130854 184.17966239 -235.47009277 182.21612549 C-234.73820236 181.47859543 -234.00631195 180.74106537 -233.25224304 179.98118591 C-232.44906143 179.18205276 -231.64587982 178.38291962 -230.81835938 177.55957031 C-229.97271927 176.71042557 -229.12707916 175.86128082 -228.2558136 174.98640442 C-225.93937607 172.66267643 -223.61849891 170.34350231 -221.29524422 168.02659321 C-218.86550505 165.60191945 -216.44065142 163.17236776 -214.01501465 160.74359131 C-209.94312607 156.66806606 -205.86704242 152.59677216 -201.78857422 148.52783203 C-197.0689265 143.81908289 -192.35654675 139.10315217 -187.64784956 134.38345456 C-183.60647529 130.33301631 -179.56123155 126.28647359 -175.51270342 122.24318576 C-173.0938465 119.82745157 -170.67637242 117.41037522 -168.26237488 114.98978424 C-165.57359241 112.29595065 -162.87853078 109.60856483 -160.18164062 106.92285156 C-159.37845901 106.11562149 -158.5752774 105.30839142 -157.74775696 104.47669983 C-156.64992134 103.38732368 -156.64992134 103.38732368 -155.52990723 102.27593994 C-154.89278053 101.6395673 -154.25565384 101.00319466 -153.59922028 100.34753799 C-152 99 -152 99 -150 99 C-150 98.34 -150 97.68 -150 97 C-149.34 96.34 -148.68 95.68 -148 95 C-148.42708252 94.65332275 -148.85416504 94.30664551 -149.29418945 93.94946289 C-153.51943035 90.51925457 -157.74326356 87.08732057 -161.96582031 83.65380859 C-163.66161626 82.27510939 -165.35807002 80.89721935 -167.0546875 79.51953125 C-172.08534547 75.42185881 -177.08643015 71.28874821 -182.0625 67.125 C-182.62348389 66.66013184 -183.18446777 66.19526367 -183.76245117 65.71630859 C-186.28891383 63.59101381 -188.15370768 61.76943848 -190 59 C-187.68710381 56.68710381 -186.2088578 56.27505075 -183.10400391 55.31787109 C-182.06518066 54.99414017 -181.02635742 54.67040924 -179.95605469 54.33686829 C-178.80782227 53.98593613 -177.65958984 53.63500397 -176.4765625 53.2734375 C-174.61562166 52.69592522 -172.7546819 52.11840941 -170.89377975 51.54077244 C-168.87693319 50.91599638 -166.85916903 50.29426862 -164.84112549 49.67337036 C-158.33938763 47.67262557 -151.84362325 45.65260845 -145.34708786 43.63504982 C-143.03352814 42.9167867 -140.71973231 42.1992879 -138.40591431 41.4818573 C-122.91175782 36.67501603 -107.44375445 31.7862329 -91.97775269 26.88970184 C-81.60310675 23.60512801 -71.22536903 20.33034946 -60.84765625 17.05548096 C-59.36197805 16.58663277 -57.87630095 16.1177811 -56.390625 15.64892578 C-55.67324158 15.42254425 -54.95585815 15.19616272 -54.21673584 14.96292114 C-49.69583825 13.53603026 -45.175812 12.1064101 -40.65625 10.67529297 C-35.53537309 9.05426354 -30.41214467 7.44096403 -25.28631592 5.83566284 C-23.53963438 5.28719851 -21.79387078 4.73580044 -20.0491333 4.18118286 C-17.73567481 3.44619009 -15.41921481 2.72163829 -13.1015625 2 C-11.85713379 1.608125 -10.61270508 1.21625 -9.33056641 0.8125 C-6.0784463 0.01913717 -3.33136013 -0.16290892 0 0 Z " fill="#22c55e" transform="translate(869,155)"/>
<path d="M0 0 C67.89851832 -1.43925669 147.62145638 18.13652641 198.24853516 66.47314453 C198.74224609 67.00423828 199.23595703 67.53533203 199.74462891 68.08251953 C198.30252721 71.38908134 196.51403507 73.55213347 193.95678711 76.08154297 C193.17870193 76.85624939 192.40061676 77.63095581 191.59895325 78.42913818 C190.75628403 79.25834778 189.91361481 80.08755737 189.04541016 80.94189453 C188.17699997 81.80510315 187.30858978 82.66831177 186.41386414 83.55767822 C183.63298306 86.32074103 180.84553573 89.07705327 178.05712891 91.83251953 C175.28740421 94.57451564 172.51918478 97.31798788 169.75395203 100.06451416 C168.03378801 101.77254653 166.3109583 103.47789992 164.58503723 105.18011475 C160.25363087 109.47588694 156.12076626 113.83125614 152.230896 118.53334045 C150.74462891 120.08251953 150.74462891 120.08251953 147.83447266 121.40673828 C143.14155153 120.91430787 140.12120973 118.55017421 136.30712891 115.89501953 C85.70880081 82.41119711 22.43577411 68.57598865 -37.38037109 80.71679688 C-68.66978253 87.55651506 -98.41703381 100.00745732 -124.25537109 119.08251953 C-125.04886963 119.66187256 -125.04886963 119.66187256 -125.85839844 120.25292969 C-134.54826188 126.62236755 -142.4844406 133.62962522 -150.25537109 141.08251953 C-151.20412109 141.97841797 -152.15287109 142.87431641 -153.13037109 143.79736328 C-160.26453426 150.6984501 -166.33185575 158.15059269 -172.25537109 166.08251953 C-172.68736816 166.65373535 -173.11936523 167.22495117 -173.56445312 167.81347656 C-180.32809557 176.7915135 -185.98434678 186.16343209 -191.25537109 196.08251953 C-191.59810059 196.71351563 -191.94083008 197.34451172 -192.29394531 197.99462891 C-220.72968935 250.53745896 -222.26730964 312.61416198 -206.13964844 369.15869141 C-199.75719218 390.26203104 -189.9008075 411.34546981 -176.95849609 429.26220703 C-175.05600247 432.41266665 -174.72884939 433.49366518 -175.25537109 437.08251953 C-177.11991882 439.5887146 -177.11991882 439.5887146 -179.76586914 442.25585938 C-180.2455162 442.74587433 -180.72516327 443.23588928 -181.21934509 443.74075317 C-182.80609938 445.35458064 -184.41053764 446.94935444 -186.01708984 448.54345703 C-187.1267859 449.65906089 -188.23581114 450.77533238 -189.3441925 451.89224243 C-191.66892574 454.22885638 -194.00271585 456.55593596 -196.34301758 458.87695312 C-199.34361555 461.85464576 -202.31864282 464.85648965 -205.28714275 467.86614037 C-207.57134823 470.17589695 -209.86943148 472.47143479 -212.17188454 474.76298904 C-213.27485722 475.8644731 -214.37324144 476.97057149 -215.46692467 478.08127975 C-216.99661064 479.63088971 -218.54414235 481.16012636 -220.09790039 482.68554688 C-220.97504196 483.56093109 -221.85218353 484.43631531 -222.75590515 485.33822632 C-225.25537109 487.08251953 -225.25537109 487.08251953 -227.98529053 486.94212341 C-230.56052033 485.96696968 -231.39807543 485.2126267 -232.94677734 482.96923828 C-233.41035645 482.30875488 -233.87393555 481.64827148 -234.3515625 480.96777344 C-234.83544434 480.24251465 -235.31932617 479.51725586 -235.81787109 478.77001953 C-236.33526855 478.01382324 -236.85266602 477.25762695 -237.38574219 476.47851562 C-243.39578736 467.58059743 -248.93478436 458.4059862 -254.25537109 449.08251953 C-254.69091309 448.32277832 -255.12645508 447.56303711 -255.57519531 446.78027344 C-273.00958656 416.0204036 -283.87397262 381.91999385 -289.25537109 347.08251953 C-289.37992676 346.30183105 -289.50448242 345.52114258 -289.6328125 344.71679688 C-292.05825855 329.32689254 -292.46508321 313.81788519 -292.44287109 298.27001953 C-292.44196472 297.08489273 -292.44196472 297.08489273 -292.44104004 295.87582397 C-292.41849242 284.98436006 -292.2450104 274.22624584 -290.61035156 263.43701172 C-290.20244427 260.73146984 -289.84250642 258.02080639 -289.47802734 255.30908203 C-279.69431966 185.83984106 -243.22374674 118.40917726 -189.25537109 73.08251953 C-188.45945557 72.40793701 -188.45945557 72.40793701 -187.64746094 71.71972656 C-172.55718687 58.98021943 -156.40635433 47.86397697 -139.25537109 38.08251953 C-138.17384766 37.45345703 -137.09232422 36.82439453 -135.97802734 36.17626953 C-100.22896741 16.19283168 -59.89593681 4.83280703 -19.25537109 1.08251953 C-18.54896484 1.01194336 -17.84255859 0.94136719 -17.11474609 0.86865234 C-11.41380286 0.31210365 -5.72180474 0.1450405 0 0 Z " fill="#F99735" transform="translate(478.25537109375,198.91748046875)"/>
<path d="M0 0 C14.12939397 28.19648511 24.66069761 57.84788967 30 89 C30.22429687 90.27061279 30.22429687 90.27061279 30.453125 91.56689453 C43.28394857 167.65312525 22.70129404 251.07013659 -21 314 C-21.37592285 314.54720703 -21.7518457 315.09441406 -22.13916016 315.65820312 C-28.26569494 324.55584759 -34.83949577 332.90778624 -42 341 C-42.65871094 341.74628662 -43.31742188 342.49257324 -43.99609375 343.26147461 C-49.44418607 349.37922828 -55.08004798 355.27313832 -60.875 361.0625 C-62.19153564 362.37782715 -62.19153564 362.37782715 -63.53466797 363.71972656 C-69.43089246 369.5602748 -75.39641905 374.96712005 -82 380 C-82.71800781 380.59683594 -83.43601562 381.19367188 -84.17578125 381.80859375 C-123.71582787 414.65619724 -174.18800785 437.24237268 -225 445 C-225.96083496 445.14808105 -226.92166992 445.29616211 -227.91162109 445.44873047 C-257.94580025 449.8433993 -290.06254971 450.18776833 -320 445 C-321.09425293 444.81195801 -322.18850586 444.62391602 -323.31591797 444.43017578 C-354.26094739 438.89310788 -386.2679314 428.82590694 -413 412 C-412.48278137 407.8096989 -410.20670975 405.80237907 -407.31591797 402.86425781 C-406.82958389 402.36624161 -406.34324982 401.8682254 -405.84217834 401.3551178 C-404.2335815 399.71295415 -402.61380607 398.08242493 -400.9921875 396.453125 C-399.86680254 395.31555869 -398.74157074 394.17784086 -397.6164856 393.03997803 C-395.25632972 390.65735012 -392.88979702 388.28125967 -390.51953125 385.90869141 C-387.4860706 382.86994616 -384.4763092 379.80884061 -381.47183037 376.74147415 C-379.15536907 374.38411819 -376.82323758 372.04275533 -374.48648453 369.70552826 C-373.37002224 368.58368465 -372.25929372 367.45610394 -371.1545372 366.32273102 C-369.60596823 364.73743181 -368.03669616 363.17588026 -366.46044922 361.61816406 C-365.57300018 360.72421936 -364.68555115 359.83027466 -363.77120972 358.90924072 C-360.26530232 356.49382585 -358.1766103 356.58647347 -354 357 C-351.12011719 357.67089844 -351.12011719 357.67089844 -348.296875 358.609375 C-347.2435498 358.9501709 -346.19022461 359.2909668 -345.10498047 359.64208984 C-343.44426514 360.19050537 -343.44426514 360.19050537 -341.75 360.75 C-333.84921988 363.26574274 -325.99637794 365.68031383 -317.875 367.375 C-317.20436523 367.51776367 -316.53373047 367.66052734 -315.84277344 367.80761719 C-302.46866287 370.45424281 -289.28961842 371.3281218 -275.69189453 371.26074219 C-273.13419749 371.25003849 -270.577207 371.26070056 -268.01953125 371.2734375 C-252.52008476 371.28850601 -237.4172423 369.9842269 -222.3125 366.375 C-221.21220459 366.11340088 -220.11190918 365.85180176 -218.97827148 365.58227539 C-183.13952042 356.76862404 -149.33591276 339.98828706 -122 315 C-121.10410156 314.21109375 -120.20820312 313.4221875 -119.28515625 312.609375 C-110.32642706 304.68797235 -102.38864019 296.41116354 -95 287 C-94.55140625 286.43845215 -94.1028125 285.8769043 -93.640625 285.29833984 C-65.51717801 249.96053334 -49.29183105 207.67470578 -44 163 C-43.9057373 162.23155762 -43.81147461 161.46311523 -43.71435547 160.67138672 C-39.94150457 127.14768293 -44.99470555 92.8773296 -56.21484375 61.20703125 C-57.11255834 57.54024677 -56.9843183 55.63442504 -56 52 C-53.93254089 49.30435181 -53.93254089 49.30435181 -51.17651367 46.54541016 C-50.67560715 46.03734833 -50.17470062 45.5292865 -49.65861511 45.00582886 C-48.00723568 43.33760377 -46.33844542 41.68814745 -44.66796875 40.0390625 C-43.51232336 38.88258823 -42.3574936 37.72529838 -41.20344543 36.56723022 C-38.7860125 34.14694236 -36.36004771 31.73565014 -33.92749023 29.33056641 C-30.80821179 26.24542689 -27.70946414 23.14058265 -24.61658764 20.02900124 C-22.2365454 17.63839962 -19.84686152 15.25763243 -17.45403481 12.87983322 C-16.30735651 11.73834112 -15.16350699 10.59400015 -14.02254295 9.44679642 C-12.42846814 7.84728018 -10.82210348 6.26124451 -9.21166992 4.67822266 C-8.29979416 3.77254547 -7.3879184 2.86686829 -6.44841003 1.93374634 C-4 0 -4 0 0 0 Z " fill="#F99734" transform="translate(765,359)"/>
<path d="M0 0 C0.99 0.66 1.98 1.32 3 2 C2.01 2.33 1.02 2.66 0 3 C-0.84798934 4.79697927 -0.84798934 4.79697927 -1.375 7 C-2.90545209 12.09877887 -5.27697698 16.44727771 -8 21 C-9 19 -9 19 -8.39501953 17.13647461 C-8.06099121 16.39921143 -7.72696289 15.66194824 -7.3828125 14.90234375 C-6.84333984 13.70061523 -6.84333984 13.70061523 -6.29296875 12.47460938 C-5.90753906 11.63736328 -5.52210938 10.80011719 -5.125 9.9375 C-4.74730469 9.09638672 -4.36960937 8.25527344 -3.98046875 7.38867188 C-1.15954068 1.15954068 -1.15954068 1.15954068 0 0 Z " fill="#F6AF3D" transform="translate(707,583)"/>
<path d="M0 0 C0.99 0.33 1.98 0.66 3 1 C0.85178645 4.53823409 -1.66921888 6.05591771 -5.28125 7.984375 C-7.55687136 9.32906035 -9.24752949 11.03723303 -11 13 C-11.66 12.67 -12.32 12.34 -13 12 C-3.53329451 2.32187925 -3.53329451 2.32187925 0 0 Z " fill="#F6AB3B" transform="translate(295,267)"/>
<path d="M0 0 C0.33 0.66 0.66 1.32 1 2 C-0.3125 4.625 -0.3125 4.625 -2 7 C-2.66 7 -3.32 7 -4 7 C-4.268125 7.78375 -4.53625 8.5675 -4.8125 9.375 C-6 12 -6 12 -9 14 C-7.65070536 10.16336928 -5.92248975 7.34827431 -3.375 4.1875 C-2.42753906 3.00220703 -2.42753906 3.00220703 -1.4609375 1.79296875 C-0.97882813 1.20128906 -0.49671875 0.60960937 0 0 Z " fill="#F4AC3C" transform="translate(243,323)"/>
<path d="M0 0 C0.99 0.33 1.98 0.66 3 1 C0.69 3.31 -1.62 5.62 -4 8 C-4.99 7.67 -5.98 7.34 -7 7 C-4.69 4.69 -2.38 2.38 0 0 Z " fill="#EC9E35" transform="translate(735,385)"/>
<path d="M0 0 C0.66666667 2.66666667 1.33333333 5.33333333 2 8 C1.34 8 0.68 8 0 8 C0 8.99 0 9.98 0 11 C-0.99 11 -1.98 11 -3 11 C-2.01 7.37 -1.02 3.74 0 0 Z " fill="#EFA138" transform="translate(716,554)"/>
<path d="M0 0 C0.99 0.33 1.98 0.66 3 1 C2.071875 1.61875 2.071875 1.61875 1.125 2.25 C-1.06768281 4.05573879 -1.92788417 5.4090534 -3 8 C-4.32 7.67 -5.64 7.34 -7 7 C-4.69 4.69 -2.38 2.38 0 0 Z " fill="#E59B34" transform="translate(720,400)"/>
<path d="M0 0 C-0.33 0.66 -0.66 1.32 -1 2 C-3.32156597 2.40729228 -5.6568787 2.74438677 -8 3 C-8.33 2.34 -8.66 1.68 -9 1 C-3.375 -1.125 -3.375 -1.125 0 0 Z " fill="#EB9C34" transform="translate(568,720)"/>
<path d="M0 0 C0.99 0.66 1.98 1.32 3 2 C2.01 2.33 1.02 2.66 0 3 C-1.22520264 6.00847418 -1.22520264 6.00847418 -2 9 C-2.66 8.67 -3.32 8.34 -4 8 C-2.68 5.36 -1.36 2.72 0 0 Z " fill="#EEA239" transform="translate(707,583)"/>
</svg>